<?xml version="1.0" standalone="no"?><!DOCTYPE svg PUBLIC "-//W3C//DTD SVG 1.1//EN" "http://www.w3.org/Graphics/SVG/1.1/DTD/svg11.dtd"><svg t="1749707830412" class="icon" viewBox="0 0 1024 1024" version="1.1" xmlns="http://www.w3.org/2000/svg" p-id="13227" xmlns:xlink="http://www.w3.org/1999/xlink" width="200" height="200"><path d="M928 192H96c-17.6 0-32 14.4-32 32v576c0 17.6 14.4 32 32 32h832c17.6 0 32-14.4 32-32V224c0-17.6-14.4-32-32-32zM640 320h64v64h-64v-64z m-128 0h64v64h-64v-64z m-128 0h64v64h-64v-64z m128 128v64h-64v-64h64zM192 320h128v64H192v-64z m192 128v64h-64v-64h64z m-192 0h64v64h-64v-64z m384 192H192v-64h384v64z m0-192h64v64h-64v-64z m256 192H640v-64h128V448h64v192z m0-256h-64v-64h64v64z" p-id="13228" fill="#000000"></path></svg>