<?xml version="1.0" standalone="no"?><!DOCTYPE svg PUBLIC "-//W3C//DTD SVG 1.1//EN" "http://www.w3.org/Graphics/SVG/1.1/DTD/svg11.dtd"><svg t="1749643804422" class="icon" viewBox="0 0 1024 1024" version="1.1" xmlns="http://www.w3.org/2000/svg" p-id="32421" xmlns:xlink="http://www.w3.org/1999/xlink" width="200" height="200"><path d="M1002.682182 895.394909a107.333818 107.333818 0 0 1-107.287273 107.287273H107.333818A107.333818 107.333818 0 0 1 0 895.394909V107.287273A107.333818 107.333818 0 0 1 107.333818 0h788.061091a107.287273 107.287273 0 0 1 107.287273 107.287273v788.107636" fill="#05D065" p-id="32422"></path><path d="M324.654545 392.052364c-18.990545 0-38.167273-12.753455-38.167272-31.744 0-19.083636 19.176727-31.604364 38.167272-31.604364s31.604364 12.567273 31.604364 31.650909c0 18.944-12.613818 31.650909-31.650909 31.650909z m177.245091-63.301819c19.083636 0 31.650909 12.520727 31.650909 31.557819 0 18.990545-12.567273 31.744-31.650909 31.744-18.990545 0-38.027636-12.753455-38.027636-31.744 0-19.083636 19.083636-31.604364 38.027636-31.604364z m136.192 68.654546c8.192 0 16.290909 0.605091 24.389819 1.489454-21.876364-102.074182-131.025455-177.850182-255.534546-177.850181C267.636364 221.044364 153.6 315.904 153.6 436.456727c0 69.538909 37.934545 126.650182 101.329455 170.961455l-25.274182 76.194909 88.529454-44.404364c31.650909 6.283636 57.064727 12.706909 88.669091 12.706909 7.959273 0 15.872-0.372364 23.691637-1.024a187.950545 187.950545 0 0 1-7.819637-53.061818c0-110.638545 94.952727-200.424727 215.319273-200.424727z" fill="#FFFFFE" p-id="32423"></path><path d="M723.595636 563.106909c-12.567273 0-25.134545-12.567273-25.134545-25.367273 0-12.567273 12.567273-25.274182 25.134545-25.274181 18.944 0 31.650909 12.706909 31.650909 25.274181 0 12.846545-12.706909 25.367273-31.650909 25.367273z m-139.310545 0c-12.613818 0-25.320727-12.567273-25.320727-25.367273 0-12.567273 12.706909-25.274182 25.320727-25.274181 19.130182 0 31.650909 12.706909 31.650909 25.274181 0 12.846545-12.520727 25.367273-31.650909 25.367273z m284.951273 31.697455c0-101.282909-101.329455-183.808-215.133091-183.808-120.552727 0-215.412364 82.525091-215.412364 183.854545 0 101.376 94.906182 183.714909 215.412364 183.714909 25.227636 0 50.641455-6.330182 76.008727-12.660363l69.492364 38.027636-19.083637-63.301818c50.827636-38.167273 88.715636-88.715636 88.715637-145.826909z" fill="#FFFFFE" p-id="32424"></path></svg>